<svg width="184" height="59" fill="none" xmlns="http://www.w3.org/2000/svg"><path d="M61.6 26V3.6h4.8l7.5 17.6h.1l7.5-17.6h4.7v22.6h-3.7l.3-17.2h-.1l-7.4 17.2h-2.8L65 9.2l.2 16.9h-3.7ZM88.4 18.1c0-1.2.2-2.4.6-3.4.4-1 1-2 1.7-2.7.7-.7 1.5-1.3 2.5-1.7 1-.4 2-.6 3.2-.6 1 0 2 .2 3 .5 1 .4 1.7.9 2.4 1.6.6.6 1.2 1.4 1.5 2.4.4 1 .5 2 .5 3.3v1.2H92.1c0 .7.1 1.4.4 2 .2.7.5 1.2.9 1.6.4.5.8.8 1.4 1 .5.3 1 .4 1.7.4.5 0 1 0 1.4-.2.5-.1.8-.3 1.1-.5l.8-.8.4-1h3.5a6.2 6.2 0 0 1-2.3 3.7c-.6.5-1.4.9-2.2 1.2a9.8 9.8 0 0 1-6.1-.2 6.8 6.8 0 0 1-4.1-4.2c-.4-1.1-.6-2.3-.6-3.6Zm8-5.7c-.6 0-1 .1-1.5.3-.5.2-.8.4-1.2.8l-1 1.2a7 7 0 0 0-.5 1.6h8c0-.7-.2-1.2-.4-1.7a3.3 3.3 0 0 0-2-2l-1.4-.2ZM106 26V10h3.5v2.4l.8-1.1a4 4 0 0 1 2.1-1.4 4.9 4.9 0 0 1 2.5 0 3.1 3.1 0 0 1 1.1.4l-.9 3.2a5.4 5.4 0 0 0-1.5-.5 3.2 3.2 0 0 0-2 .4c-.4.2-.8.6-1.1 1l-.7 1.7-.2 2v8h-3.5ZM116.5 18c0-1.2.2-2.3.6-3.4a7 7 0 0 1 4.2-4.4c.9-.3 2-.5 3.1-.5s2 .1 3 .5c.8.2 1.5.6 2.1 1.2.7.5 1.2 1.1 1.5 1.8.4.8.6 1.5.7 2.4h-3.5c0-.5-.2-.9-.4-1.2-.2-.4-.4-.7-.8-1-.3-.3-.6-.5-1-.6-.5-.2-1-.3-1.6-.3a3.8 3.8 0 0 0-3 1.6c-.4.5-.8 1-1 1.8a8.3 8.3 0 0 0 0 4.5c.2.6.6 1.2 1 1.7.3.5.8.9 1.3 1.1.5.3 1.1.4 1.7.4.6 0 1.1 0 1.5-.2l1.2-.6.7-1 .4-1.2h3.5c-.1.8-.3 1.6-.7 2.3-.3.7-.8 1.4-1.4 1.9-.6.5-1.4 1-2.3 1.2a9.3 9.3 0 0 1-6.2-.1 7.2 7.2 0 0 1-4.1-4.3 11 11 0 0 1-.5-3.5ZM133.1 22c0-.7.1-1.3.3-1.8.3-.6.6-1 1-1.4a5 5 0 0 1 1.7-1c.6-.3 1.4-.5 2.4-.7l3-.5a12.1 12.1 0 0 0 1.7-.4l.4-.3v-.4l-.1-1.3c-.2-.4-.3-.7-.6-1-.3-.3-.6-.5-1-.6-.4-.2-.8-.3-1.4-.3l-1.4.2a2.8 2.8 0 0 0-1.7 1.5l-.3 1.2h-3.3c0-.9.2-1.6.5-2.3a5.6 5.6 0 0 1 3.5-2.8 9.7 9.7 0 0 1 5.6 0c.9.2 1.6.6 2.1 1.1.6.5 1 1.1 1.3 1.9.3.7.4 1.5.4 2.5V26h-3.4v-2h-.1a4.5 4.5 0 0 1-2 1.7 7 7 0 0 1-3.2.7c-.8 0-1.6-.1-2.2-.4-.7-.2-1.3-.5-1.8-.8a4.2 4.2 0 0 1-1.4-3.3Zm10.6-2.5V18l-.3.3a2 2 0 0 1-.4.2 6.2 6.2 0 0 1-1 .3l-2.7.5a4.2 4.2 0 0 0-2 .8l-.5.7-.1.8.1 1 .6.6.8.4c.4.2.8.2 1.2.2.6 0 1.1 0 1.6-.2l1.4-.8a4.6 4.6 0 0 0 1.3-3.2ZM149.4 18.2c0-1.3.1-2.4.5-3.5.4-1 1-2 1.6-2.7a7 7 0 0 1 5.3-2.3c.5 0 1 0 1.6.2.5 0 1 .2 1.4.5l1.1.8c.4.4.7.8.9 1.3h.1a30.6 30.6 0 0 1-.1-3V2.1h3.5v24H162v-2.4h-.1c-.2.5-.5.9-1 1.2a5 5 0 0 1-2.6 1.4 8.2 8.2 0 0 1-4.5-.4 6.7 6.7 0 0 1-3.8-4.2 11 11 0 0 1-.5-3.5Zm3.6 0c0 .9.1 1.6.4 2.3.2.7.5 1.2.9 1.7a4 4 0 0 0 3 1.4c.7 0 1.3-.1 1.8-.3a4 4 0 0 0 1.4-1.2c.4-.4.7-1 1-1.7.2-.7.3-1.5.3-2.3 0-.9-.1-1.6-.4-2.3-.2-.7-.5-1.3-.9-1.8s-.8-.8-1.4-1c-.5-.3-1-.5-1.7-.5a4 4 0 0 0-1.8.4 4 4 0 0 0-1.3 1.2c-.4.5-.7 1-1 1.8-.2.7-.3 1.5-.3 2.3ZM167.7 18c0-1.2.2-2.3.6-3.4.4-1 1-1.9 1.7-2.6.7-.8 1.6-1.3 2.6-1.7a9 9 0 0 1 3.2-.6c1.3 0 2.4.2 3.4.6a7 7 0 0 1 4.2 4.3c.4 1 .6 2.2.6 3.5 0 1.2-.2 2.4-.6 3.5a7.5 7.5 0 0 1-4.3 4.3 9.6 9.6 0 0 1-6.6 0c-1-.4-1.9-1-2.6-1.7a7.7 7.7 0 0 1-1.7-2.6c-.3-1-.5-2.2-.5-3.5Zm3.7 0c0 1 0 1.7.3 2.3.2.7.5 1.3.9 1.8a4 4 0 0 0 3.2 1.5 4.1 4.1 0 0 0 3.3-1.5c.4-.5.7-1 .9-1.8.2-.6.3-1.4.3-2.2 0-.9 0-1.6-.3-2.3-.2-.7-.5-1.3-1-1.8-.3-.5-.8-.8-1.3-1-.6-.3-1.2-.5-1.9-.5-.6 0-1.2.2-1.8.4a4 4 0 0 0-1.4 1.2l-1 1.7-.2 2.3ZM62.4 54V31.6h10c1.2 0 2.3.2 3.2.4a6 6 0 0 1 2.3 1.2c.6.5 1 1.1 1.4 1.8a6.3 6.3 0 0 1 .2 4 4 4 0 0 1-.7 1.4 4 4 0 0 1-1 1c-.5.4-1 .6-1.6.8v.1l1.8.7a4.7 4.7 0 0 1 2.3 2.7c.2.5.3 1.1.3 1.8 0 1-.1 1.8-.5 2.7a6 6 0 0 1-1.4 2c-.7.7-1.5 1.1-2.4 1.5-1 .3-2 .5-3.2.5H62.4ZM72.8 44h-6.6V51h6.6c.7 0 1.3 0 1.8-.3.5-.1 1-.4 1.3-.7.3-.4.6-.7.7-1.2a4.2 4.2 0 0 0 0-2.9 3.1 3.1 0 0 0-2-1.8l-1.8-.2Zm-.7-9.3h-6v6.3h6c.6 0 1.2 0 1.7-.2s.9-.4 1.2-.7c.4-.3.6-.7.7-1.1a3.4 3.4 0 0 0 0-2.6c0-.3-.3-.7-.6-1a3 3 0 0 0-1.2-.5c-.5-.2-1-.2-1.8-.2ZM82.6 33.7V30h3.8v3.6h-3.8Zm.1 20.4V38h3.6v16h-3.6ZM90.7 49v-8.2h-3v-2.7h3v-4.9h3.6v4.9h4v2.7h-4v9l.5.8c.1.2.4.3.7.4l1 .1h1.9v3h-2.5c-1 0-1.7-.1-2.3-.3a3.7 3.7 0 0 1-2.5-2.5c-.3-.7-.4-1.5-.4-2.4ZM99 46c0-1.2.3-2.3.7-3.4.4-1 1-2 1.6-2.7a7 7 0 0 1 2.5-1.6c1-.4 2-.6 3.2-.6 1.1 0 2 .1 3 .4.8.3 1.5.7 2.1 1.2.7.6 1.2 1.2 1.5 2 .4.6.6 1.4.7 2.2h-3.5c0-.4-.2-.8-.4-1.1l-.7-1c-.3-.3-.7-.5-1.2-.6-.4-.2-.9-.3-1.5-.3a3.8 3.8 0 0 0-3 1.6c-.4.4-.7 1-1 1.7a8.3 8.3 0 0 0 0 4.5c.3.7.6 1.3 1 1.8s.8.8 1.3 1.1c.6.3 1.1.4 1.7.4.6 0 1.1 0 1.5-.2a3.2 3.2 0 0 0 1.9-1.6l.4-1.2h3.5c-.1.8-.3 1.6-.7 2.3-.3.7-.8 1.4-1.4 1.9-.6.5-1.4 1-2.2 1.2a9.3 9.3 0 0 1-6.2-.1 7.2 7.2 0 0 1-4.2-4.3 11 11 0 0 1-.5-3.5ZM115.3 46c0-1.2.2-2.3.6-3.4a7.2 7.2 0 0 1 4.3-4.4 9 9 0 0 1 3.3-.5c1.2 0 2.3.2 3.3.6 1 .3 1.9.9 2.6 1.6a7 7 0 0 1 1.6 2.7c.4 1 .6 2.2.6 3.5 0 1.2-.2 2.4-.6 3.4a7.5 7.5 0 0 1-4.3 4.4 9.6 9.6 0 0 1-6.6 0c-1-.4-1.9-1-2.6-1.7a7.7 7.7 0 0 1-1.6-2.6c-.4-1-.6-2.2-.6-3.5Zm3.7 0c0 .9 0 1.6.3 2.3.2.7.5 1.3 1 1.8a4 4 0 0 0 3.2 1.5 4.1 4.1 0 0 0 3.2-1.5c.4-.5.7-1.1 1-1.8l.2-2.2c0-.9 0-1.7-.3-2.3-.2-.7-.5-1.3-.9-1.8s-.9-.8-1.4-1c-.6-.3-1.2-.5-1.8-.5-.7 0-1.3.2-1.9.4a4 4 0 0 0-1.4 1.2c-.4.4-.7 1-.9 1.7-.2.7-.3 1.4-.3 2.3ZM133.6 33.7V30h3.8v3.6h-3.8Zm0 20.4V38h3.6v16h-3.5ZM140 54V38h3.5v2.4h.1a4.2 4.2 0 0 1 2-2c.4-.3.8-.4 1.3-.6a7.7 7.7 0 0 1 4 .2 5 5 0 0 1 1.9 1.2c.5.5 1 1.2 1.3 2 .3 1 .4 2 .4 3.2V54H151v-9.3c0-.8 0-1.4-.2-2-.2-.5-.4-1-.7-1.3l-1-.7a4 4 0 0 0-3 .1c-.6.2-1 .6-1.3 1-.4.5-.7 1-.9 1.7-.2.6-.3 1.3-.3 2.1v8.4h-3.5ZM45.6 11.7 30.4 2.9c-3.1-1.8-7-1.8-10.1 0L5 11.7C1.9 13.5 0 16.9 0 20.5V38c0 3.7 2 7 5 8.8l15.3 8.8c3.1 1.8 7 1.8 10.1 0l15.2-8.8c3.2-1.8 5-5.1 5-8.8V20.5c0-3.6-1.8-7-5-8.8Z" fill="#EF4723"/></svg>